<?xml version="1.0" encoding="UTF-8"?>
<svg width="25px" height="26px" viewBox="0 0 25 26" version="1.1" xmlns="http://www.w3.org/2000/svg" xmlns:xlink="http://www.w3.org/1999/xlink">
    <!-- Generator: Sketch 52 (66869) - http://www.bohemiancoding.com/sketch -->
    <title>header cart</title>
    <desc>Created with Sketch.</desc>
    <defs>
        <path d="M23.2901395,19.9408609 C23.3844535,19.9319913 23.4800246,19.9274561 23.5766523,19.9274561 C25.2495758,19.9274561 26.6057482,21.2868414 26.6057482,22.9637281 C26.6057482,24.6406147 25.2495758,26 23.5766523,26 C21.9037289,26 20.5475565,24.6406147 20.5475565,22.9637281 C20.5475565,22.541895 20.6333765,22.1401537 20.7884703,21.7750899 C18.5974101,21.7750899 16.7539699,21.7750899 15.2581496,21.7750899 C15.4132433,22.1401537 15.4990634,22.541895 15.4990634,22.9637281 C15.4990634,24.6406147 14.142891,26 12.4699675,26 C10.7970441,26 9.44087164,24.6406147 9.44087164,22.9637281 C9.44087164,22.5141276 9.53836185,22.0873511 9.71330859,21.7034798 C8.23659643,21.407037 7.51225114,20.2136472 7.51225114,18.562641 C7.51225114,17.2869027 7.51225114,12.3308255 7.51225114,3.69440919 L5.45593925,2.67317613 C4.35313639,2.16974586 3.65869127,1.82280748 3.37260388,1.63236098 C2.94347281,1.34669123 2.91320457,0.866219975 3.13860574,0.42895901 C3.3640069,-0.0083019546 3.94493488,-0.065560879 4.24351825,0.0552625764 C4.35579472,0.100695891 4.58452375,0.210734392 4.92970534,0.385378081 C7.01576257,1.38678198 8.05879119,1.88748393 8.05879119,1.88748393 C8.78713123,2.29271554 9.33191491,2.4699117 9.33191491,3.30332363 L9.33191491,4.59960147 L9.43027178,4.59960147 L26.35887,6.87899837 C26.8702928,7.00518025 27.2618202,7.24472608 27.5334519,7.59763586 C27.9408996,8.12700053 28,8.49040115 28,8.97177871 C28,10.4356161 28,13.4858179 28,14.4826506 C28,15.4794833 26.7710321,17.1869538 25.2731235,17.1869538 C23.7752149,17.1869538 12.1435287,17.1869538 11.6755324,17.1869538 C11.2075361,17.1869538 10.3343723,17.1236364 9.3455345,16.6593497 C9.34246077,16.6572722 9.33792091,16.6553264 9.33191491,16.6535122 L9.33191491,18.6998391 C9.33191491,19.527537 10.0167154,19.9408609 11.1518868,19.9408609 C11.4108436,19.9408609 11.7546996,19.9408609 12.1834547,19.9408609 C12.2777687,19.9319913 12.3733397,19.9274561 12.4699675,19.9274561 C12.5665953,19.9274561 12.6621663,19.9319913 12.7564803,19.9408609 C14.8175422,19.9408609 18.3287619,19.9408609 23.2901395,19.9408609 Z M9.34746034,6.46284837 C9.34746034,11.6118775 9.34746034,14.3407006 9.34746034,14.6493178 C9.34746034,14.8110313 9.46427454,14.9651604 9.52209618,15.013853 C9.78565959,15.2358046 10.4627182,15.3548561 11.5532721,15.3710076 C20.6313854,15.3472758 25.1704421,15.3354099 25.1704421,15.3354099 C25.8757981,15.3354099 26.2168349,14.6174746 26.2168349,14.315508 C26.2168349,14.315508 26.2168349,12.4594499 26.2168349,8.74733373 L9.34746034,6.46284837 Z M12.4699675,24.0770278 C13.0833728,24.0770278 13.580636,23.5785865 13.580636,22.9637281 C13.580636,22.3488696 13.0833728,21.8504283 12.4699675,21.8504283 C11.8565622,21.8504283 11.359299,22.3488696 11.359299,22.9637281 C11.359299,23.5785865 11.8565622,24.0770278 12.4699675,24.0770278 Z M23.5766523,24.0770278 C24.1900576,24.0770278 24.6873208,23.5785865 24.6873208,22.9637281 C24.6873208,22.3488696 24.1900576,21.8504283 23.5766523,21.8504283 C22.9632471,21.8504283 22.4659838,22.3488696 22.4659838,22.9637281 C22.4659838,23.5785865 22.9632471,24.0770278 23.5766523,24.0770278 Z" id="path-1"></path>
    </defs>
    <g id="Category" stroke="none" stroke-width="1" fill="none" fill-rule="evenodd">
        <g id="header-cart" transform="translate(-3.000000, 0.000000)">
            <rect id="Rectangle" x="0" y="0" width="30" height="30"></rect>
            <mask id="mask-2" fill="white">
                <use xlink:href="#path-1"></use>
            </mask>
            <use id="Combined-Shape" fill="#FFFFFF" xlink:href="#path-1"></use>
        </g>
    </g>
</svg>