<?xml version="1.0" encoding="UTF-8"?>
<svg width="22px" height="22px" viewBox="0 0 22 22" version="1.1" xmlns="http://www.w3.org/2000/svg" xmlns:xlink="http://www.w3.org/1999/xlink">
    <!-- Generator: Sketch 52 (66869) - http://www.bohemiancoding.com/sketch -->
    <title>header search</title>
    <desc>Created with Sketch.</desc>
    <defs>
        <path d="M21.1159678,19.6091142 C21.1324664,19.623587 21.1486026,19.6386943 21.1643445,19.6544362 L25.7351351,24.2252268 C26.1256594,24.6157511 26.1256594,25.2489161 25.7351351,25.6394404 L25.6394404,25.7351351 C25.2489161,26.1256594 24.6157511,26.1256594 24.2252268,25.7351351 L19.6544362,21.1643445 C19.6386922,21.1486005 19.623583,21.1324622 19.6091085,21.1159613 C17.9114372,22.478219 15.81707,23.217995 13.6089975,23.217995 C11.0423547,23.217995 8.6293009,22.2184452 6.81442417,20.4035643 C4.99950311,18.5886834 4,16.1756684 4,13.6089753 C4,11.0423266 4.99950311,8.62931158 6.81442417,6.81443066 C8.6293009,4.99950542 11.0423104,4 13.6089975,4 C16.1756846,4 18.5886497,4.99950542 20.4035708,6.81443066 C22.2184475,8.62931158 23.2179506,11.0423266 23.217995,13.6089753 C23.217995,15.8170902 22.4782213,17.9114667 21.1159678,19.6091142 Z M13.6089975,21.0826622 C17.7300025,21.0826622 21.0826622,17.7300025 21.0826622,13.6089975 C21.0826622,9.48799245 17.7300451,6.13533277 13.6090401,6.13533277 C9.48803505,6.13533277 6.13533277,9.48799245 6.13533277,13.6089975 C6.13533277,17.7300025 9.48799245,21.0826622 13.6089975,21.0826622 Z" id="path-1"></path>
    </defs>
    <g id="Category" stroke="none" stroke-width="1" fill="none" fill-rule="evenodd">
        <g id="header-search" transform="translate(-4.000000, -4.000000)">
            <rect id="Rectangle" x="0" y="0" width="30" height="30"></rect>
            <mask id="mask-2" fill="white">
                <use xlink:href="#path-1"></use>
            </mask>
            <use id="Combined-Shape" fill="#FFFFFF" fill-rule="nonzero" xlink:href="#path-1"></use>
        </g>
    </g>
</svg>