<?xml version="1.0" encoding="UTF-8"?>
<svg width="24px" height="25px" viewBox="0 0 24 25" version="1.1" xmlns="http://www.w3.org/2000/svg" xmlns:xlink="http://www.w3.org/1999/xlink">
    <!-- Generator: Sketch 52 (66869) - http://www.bohemiancoding.com/sketch -->
    <title>header account</title>
    <desc>Created with Sketch.</desc>
    <defs>
        <path d="M15,16.3874479 C21.7289917,16.3874479 27,19.7417888 27,24.0239797 L27,25.3421951 C27,25.9194544 26.5650244,26.3874479 26.0283869,26.3874479 C25.4917494,26.3874479 25.0567737,25.919505 25.0567737,25.3421951 L25.0567737,24.0239797 C25.0567737,21.0177028 20.4513594,18.4779536 15,18.4779536 C9.54864055,18.4779536 4.94322626,21.0177028 4.94322626,24.0239797 L4.94322626,25.3421951 C4.94322626,25.919505 4.50820365,26.3874479 3.97161313,26.3874479 C3.43502261,26.3874479 3,25.919505 3,25.3421951 L3,24.0239797 C3,19.7417888 8.27100828,16.3874479 15,16.3874479 Z M21.1335117,7.81723806 C21.626819,11.1440628 19.3215798,14.2519744 15.9946468,14.7453216 C15.6914222,14.7903044 15.3881975,14.8125519 15.0871196,14.8125519 C13.7883521,14.8126007 12.5286647,14.3987784 11.4663294,13.6108475 C10.1577553,12.640302 9.30545742,11.218221 9.0664881,9.60664617 C8.57318087,6.27982146 10.87842,3.17190981 14.2053043,2.67856262 C14.7990196,2.59054855 15.4010778,2.59054855 15.9946468,2.67856262 C17.2987323,2.8719594 18.4807474,3.46683502 19.4129619,4.39903288 C20.3451765,5.33123074 20.9401603,6.51322464 21.1335117,7.81723806 Z M15.6865852,12.6684447 C17.8681402,12.3449975 19.3797899,10.3070172 19.0564319,8.12550565 C18.796139,6.37028463 17.4419846,5.01610944 15.6866809,4.7558217 C15.4920827,4.72699115 15.2960502,4.71255197 15.1000177,4.71255197 C14.9039852,4.71255197 14.7080005,4.72699115 14.5133068,4.7558217 C12.3317518,5.07931671 10.8201021,7.11729706 11.1436035,9.2988564 C11.3002861,10.355594 11.8591222,11.2881165 12.7172187,11.9245401 C13.5752673,12.5610115 14.6300178,12.8252198 15.6865852,12.6684447 Z" id="path-1"></path>
    </defs>
    <g id="Category" stroke="none" stroke-width="1" fill="none" fill-rule="evenodd">
        <g id="header-account" transform="translate(-3.000000, -2.000000)">
            <rect id="Rectangle-7" x="0" y="0" width="30" height="30"></rect>
            <mask id="mask-2" fill="white">
                <use xlink:href="#path-1"></use>
            </mask>
            <use id="Combined-Shape" fill="#FFFFFF" fill-rule="nonzero" xlink:href="#path-1"></use>
        </g>
    </g>
</svg>