<?xml version="1.0" encoding="UTF-8"?>
<svg width="23px" height="23px" viewBox="0 0 23 23" version="1.1" xmlns="http://www.w3.org/2000/svg" xmlns:xlink="http://www.w3.org/1999/xlink">
    <!-- Generator: Sketch 52 (66869) - http://www.bohemiancoding.com/sketch -->
    <title>instagram</title>
    <desc>Created with Sketch.</desc>
    <g id="Category" stroke="none" stroke-width="1" fill="none" fill-rule="evenodd">
        <g id="instagram" transform="translate(-4.000000, -4.000000)">
            <rect id="Rectangle-18" x="0" y="0" width="30" height="30"></rect>
            <path d="M20.5827372,4.5 L10.629854,4.5 C7.24959854,4.5 4.5,7.24976277 4.5,10.6300182 L4.5,20.5827372 C4.5,23.9629927 7.24959854,26.7125912 10.629854,26.7125912 L20.5827372,26.7125912 C23.9629927,26.7125912 26.7125912,23.9623358 26.7125912,20.5827372 L26.7125912,10.6300182 C26.7125912,7.24976277 23.9629927,4.5 20.5827372,4.5 Z M24.7417883,20.5827372 C24.7417883,22.8762591 22.8762591,24.7417883 20.5827372,24.7417883 L10.629854,24.7417883 C8.33633212,24.7417883 6.47080292,22.8762591 6.47080292,20.5827372 L6.47080292,10.6300182 C6.47080292,8.33649635 8.33633212,6.47080292 10.629854,6.47080292 L20.5827372,6.47080292 C22.8762591,6.47080292 24.7417883,8.33649635 24.7417883,10.6300182 L24.7417883,20.5827372 Z M15.6062956,9.88324818 C12.4498905,9.88324818 9.88242701,12.4507117 9.88242701,15.6062956 C9.88242701,18.7627007 12.4498905,21.3301642 15.6062956,21.3301642 C18.7620438,21.3301642 21.3301642,18.7627007 21.3301642,15.6062956 C21.3301642,12.4507117 18.7620438,9.88324818 15.6062956,9.88324818 Z M15.6062956,19.3587044 C13.537281,19.3587044 11.8532299,17.6759672 11.8532299,15.6062956 C11.8532299,13.5374453 13.5366241,11.8533942 15.6062956,11.8533942 C17.6759672,11.8533942 19.3593613,13.5374453 19.3593613,15.6062956 C19.3593613,17.6759672 17.6753102,19.3587044 15.6062956,19.3587044 Z M21.5701095,8.2120073 C21.1902372,8.2120073 20.817427,8.36540146 20.5493978,8.63474453 C20.2792336,8.90293796 20.1246898,9.27624088 20.1246898,9.65742701 C20.1246898,10.037135 20.2798905,10.4099453 20.5493978,10.6792883 C20.8169343,10.9474818 21.1902372,11.1021898 21.5701095,11.1021898 C21.9511314,11.1021898 22.3226277,10.9474818 22.5919708,10.6792883 C22.8614781,10.4099453 23.015365,10.0364781 23.015365,9.65742701 C23.015365,9.27624088 22.8614781,8.90293796 22.5919708,8.63474453 C22.3237774,8.36540146 21.9511314,8.2120073 21.5701095,8.2120073 Z" id="Combined-Shape" fill="#424242"></path>
        </g>
    </g>
</svg>