<?xml version="1.0" encoding="UTF-8"?>
<svg width="18px" height="23px" viewBox="0 0 18 23" version="1.1" xmlns="http://www.w3.org/2000/svg" xmlns:xlink="http://www.w3.org/1999/xlink">
    <!-- Generator: Sketch 52 (66869) - http://www.bohemiancoding.com/sketch -->
    <title>pinterest</title>
    <desc>Created with Sketch.</desc>
    <g id="Category" stroke="none" stroke-width="1" fill="none" fill-rule="evenodd">
        <g id="pinterest" transform="translate(-6.000000, -4.000000)">
            <rect id="Rectangle-18" x="0" y="0" width="30" height="30"></rect>
            <path d="M23.3985118,10.7556151 C22.7886004,6.31222573 18.3522417,4.04658928 13.6293827,4.57564791 C9.8873036,4.99397334 6.16631651,8.01540783 6.00812622,12.3410334 C5.91145438,14.9775381 6.66022174,16.9549167 9.17368964,17.5103404 C10.2581719,15.5892073 8.82215567,15.1691242 8.59717392,13.775292 C7.67615492,8.07692627 15.1673439,4.19071821 19.0869477,8.16656744 C21.8060629,10.9261091 20.0149973,19.3998355 15.6401571,18.5139699 C11.4463568,17.6755614 17.6931155,10.9331398 14.3500274,9.60785672 C11.6309121,8.5304051 10.1825921,12.896457 11.4727218,15.0671793 C10.7186814,18.8022278 9.09107915,22.3175675 9.75020535,27 C11.8857742,25.4479775 12.6064189,22.4757578 13.196996,19.3787435 C14.2744476,20.030839 14.8509633,20.7110572 16.2166728,20.8200328 C21.2717313,21.2049625 24.0927914,15.7737626 23.3985118,10.7556151 Z" id="Fill-1" fill="#424242"></path>
        </g>
    </g>
</svg>