<?xml version="1.0" encoding="UTF-8"?>
<svg width="25px" height="22px" viewBox="0 0 25 22" version="1.1" xmlns="http://www.w3.org/2000/svg" xmlns:xlink="http://www.w3.org/1999/xlink">
    <!-- Generator: Sketch 54.1 (76490) - https://sketchapp.com -->
    <title>product wishlist</title>
    <desc>Created with Sketch.</desc>
    <defs>
        <path d="M25.8660796,6.06483628 C25.8647655,6.06347345 25.8634027,6.06215929 25.8623319,6.0610885 C23.1201195,3.31756195 18.6570885,3.3165885 15.9135133,6.05875221 C15.9132699,6.05904425 15.9128805,6.05938496 15.9125885,6.05967699 C15.9122478,6.06006637 15.9117611,6.06050442 15.9113717,6.06089381 L15.4615398,6.51077434 L15.0116593,6.06089381 C13.6827035,4.73188938 11.9156947,4 10.0362522,4 C8.15676106,4 6.38984956,4.73193805 5.06084513,6.06089381 C3.73188938,7.38989823 3,9.15685841 3,11.0363009 C3,12.915792 3.73188938,14.6827035 5.06089381,16.0117566 L14.7497035,25.7005664 C14.9385531,25.8894159 15.1946195,25.9954248 15.4616372,25.9954248 C15.7286549,25.9954248 15.9847212,25.8893673 16.1735221,25.7005664 L25.8620885,16.0119513 C28.604885,13.270323 28.6064912,8.80875221 25.8660796,6.06483628 Z M24.4384159,14.5879381 L15.4615398,23.5648142 L6.48466372,14.5878894 C5.5360354,13.6392124 5.01358407,12.3779602 5.01358407,11.0363009 C5.01358407,9.69473894 5.5360354,8.43338938 6.48466372,7.48476106 C7.46385841,6.50556637 8.75007965,6.0160177 10.0362522,6.0160177 C11.3224735,6.0160177 12.6086947,6.50556637 13.5878407,7.48476106 L14.7496549,8.64652655 C15.1428319,9.03970354 15.7802478,9.03970354 16.1734248,8.64652655 L17.3352389,7.48476106 C17.3353363,7.48471239 17.335385,7.48461504 17.3354823,7.4845177 C17.3360177,7.4839823 17.3365531,7.4834469 17.3370885,7.4829115 C19.2946991,5.52617699 22.4788097,5.52617699 24.436323,7.48261947 C24.4377345,7.48403097 24.439146,7.48544248 24.4402168,7.48656195 C26.3975354,9.44485398 26.396854,12.6303761 24.4384159,14.5879381 Z" id="path-1"></path>
    </defs>
    <g id="Category" stroke="none" stroke-width="1" fill="none" fill-rule="evenodd">
        <g id="product-wishlist" transform="translate(-3.000000, -4.000000)">
            <rect id="Rectangle" x="0" y="0" width="30" height="30"></rect>
            <mask id="mask-2" fill="white">
                <use xlink:href="#path-1"></use>
            </mask>
            <use id="Shape" fill="#93999D" fill-rule="nonzero" xlink:href="#path-1"></use>
        </g>
    </g>
</svg>