<?xml version="1.0" encoding="UTF-8"?>
<svg width="22px" height="22px" viewBox="0 0 22 22" version="1.1" xmlns="http://www.w3.org/2000/svg" xmlns:xlink="http://www.w3.org/1999/xlink">
    <!-- Generator: Sketch 52 (66869) - http://www.bohemiancoding.com/sketch -->
    <title>product compare</title>
    <desc>Created with Sketch.</desc>
    <defs>
        <path d="M0.916136495,6.70894103 C0.407171776,6.70894103 0,6.27774255 0,5.77045022 C0,5.26315789 0.407171776,4.85732403 0.916136495,4.85732403 L18.8316946,4.85732403 L15.5234239,1.55992391 C15.1671486,1.20481928 15.1671486,0.621433101 15.5234239,0.266328472 C15.8796992,-0.0887761573 16.4650087,-0.0887761573 16.821284,0.266328472 L21.7327935,5.13633481 C22.0890688,5.49143944 22.0890688,6.07482562 21.7327935,6.42993025 L16.8467322,11.2999366 C16.6685946,11.4774889 16.4395604,11.5789474 16.1850781,11.5789474 C15.9305957,11.5789474 15.7015616,11.4774889 15.5234239,11.2999366 C15.1671486,10.944832 15.1671486,10.3614458 15.5234239,10.0063412 L18.8316946,6.70894103 L0.916136495,6.70894103 Z M21.0589595,15.2783767 C21.5676301,15.2783767 21.9745665,15.7095751 22,16.2168675 C22,16.7241598 21.5930636,17.1299937 21.0843931,17.1299937 L3.17919075,17.1299937 L6.48554913,20.4273938 C6.8416185,20.7824984 6.8416185,21.3658846 6.48554913,21.7209892 C6.30751445,21.8985415 6.07861272,22 5.82427746,22 C5.5699422,22 5.34104046,21.8985415 5.16300578,21.7209892 L0.279768786,16.8509829 C0.228901734,16.8002536 0.178034682,16.7495244 0.152601156,16.6987952 C0.152601156,16.6734306 0.12716763,16.6734306 0.12716763,16.6480659 C0.101734104,16.6227013 0.101734104,16.5719721 0.076300578,16.5466075 C0.076300578,16.5212429 0.076300578,16.4958782 0.050867052,16.445149 C0.050867052,16.4197844 0.025433526,16.3944198 0.025433526,16.3690552 C0,16.3183259 0,16.2422321 0,16.1915029 C0,16.1407736 0.025433526,16.0646798 0.025433526,16.0139505 C0.025433526,15.9885859 0.050867052,15.9632213 0.050867052,15.9378567 C0.050867052,15.9124921 0.076300578,15.8871275 0.076300578,15.8617628 C0.076300578,15.8363982 0.101734104,15.785669 0.12716763,15.7603044 C0.12716763,15.7349398 0.152601156,15.7349398 0.152601156,15.7095751 C0.203468208,15.6588459 0.228901734,15.6081167 0.279768786,15.5573874 L5.16300578,10.6873811 C5.51907514,10.3322765 6.10404624,10.3322765 6.46011561,10.6873811 C6.81618497,11.0424857 6.81618497,11.6258719 6.46011561,11.9809765 L3.15375723,15.2783767 L21.0589595,15.2783767 Z" id="path-1"></path>
    </defs>
    <g id="Category" stroke="none" stroke-width="1" fill="none" fill-rule="evenodd">
        <g id="product-compare" transform="translate(-4.000000, -4.000000)">
            <rect id="Rectangle" opacity="0" x="0" y="0" width="30" height="30"></rect>
            <g id="colour-/-white" transform="translate(4.000000, 4.000000)">
                <mask id="mask-2" fill="white">
                    <use xlink:href="#path-1"></use>
                </mask>
                <use id="Combined-Shape" fill="#93999D" fill-rule="nonzero" xlink:href="#path-1"></use>
            </g>
        </g>
    </g>
</svg>