<?xml version="1.0" encoding="UTF-8"?>
<svg width="21px" height="24px" viewBox="0 0 21 24" version="1.1" xmlns="http://www.w3.org/2000/svg" xmlns:xlink="http://www.w3.org/1999/xlink">
    <!-- Generator: Sketch 52 (66869) - http://www.bohemiancoding.com/sketch -->
    <title>youtube</title>
    <desc>Created with Sketch.</desc>
    <g id="Category" stroke="none" stroke-width="1" fill="none" fill-rule="evenodd">
        <g id="youtube" transform="translate(-5.000000, -3.000000)">
            <rect id="Rectangle-18" x="0" y="0" width="30" height="30"></rect>
            <path d="M22.168,20.5546667 L20.8503333,20.5546667 L20.8566667,19.7903333 C20.8566667,19.4506667 21.1353333,19.172 21.4766667,19.172 L21.5613333,19.172 C21.9023333,19.172 22.1823333,19.4506667 22.1823333,19.7903333 L22.168,20.5546667 Z M17.2266667,18.9153333 C16.8933333,18.9153333 16.6196667,19.1406667 16.6196667,19.4153333 L16.6196667,23.1353333 C16.6196667,23.41 16.8933333,23.634 17.2266667,23.634 C17.5626667,23.634 17.836,23.41 17.836,23.1353333 L17.836,19.4153333 C17.836,19.1406667 17.5626667,18.9153333 17.2266667,18.9153333 Z M25.25,16.8346667 L25.25,23.9126667 C25.25,25.6106667 23.7773333,27 21.978,27 L8.522,27 C6.72133333,27 5.25,25.6106667 5.25,23.9126667 L5.25,16.8346667 C5.25,15.1366667 6.72133333,13.7473333 8.522,13.7473333 L21.978,13.7473333 C23.7773333,13.7473333 25.25,15.1366667 25.25,16.8346667 Z M9.41933333,24.681 L9.41933333,17.2253333 L11.0873333,17.2253333 L11.0873333,16.121 L6.64066667,16.1146667 L6.64066667,17.2006667 L8.02866667,17.2043333 L8.02866667,24.681 L9.41933333,24.681 Z M14.4193333,18.336 L13.0286667,18.336 L13.0286667,22.3176667 C13.0286667,22.8933333 13.0636667,23.181 13.0273333,23.2826667 C12.914,23.591 12.4063333,23.9193333 12.207,23.3163333 C12.1743333,23.211 12.203,22.892 12.203,22.345 L12.198,18.336 L10.815,18.336 L10.819,22.2813333 C10.8203333,22.8866667 10.8046667,23.3373333 10.8243333,23.543 C10.858,23.905 10.845,24.3266667 11.181,24.5676667 C11.8073333,25.0183333 13.0066667,24.5 13.306,23.8553333 L13.3033333,24.6783333 L14.4206667,24.6796667 L14.4206667,18.336 L14.4193333,18.336 Z M18.8683333,22.896 L18.866,19.5806667 C18.8646667,18.319 17.9193333,17.5626667 16.6366667,18.5833333 L16.6433333,16.1196667 L15.254,16.1223333 L15.2473333,24.6263333 L16.3893333,24.6093333 L16.4933333,24.0793333 C17.953,25.4193333 18.871,24.5013333 18.8683333,22.896 Z M23.2213333,22.4556667 L22.1783333,22.4623333 C22.177,22.5026667 22.1756667,22.5506667 22.1756667,22.603 L22.1756667,23.185 C22.1756667,23.496 21.918,23.7486667 21.6053333,23.7486667 L21.401,23.7486667 C21.0886667,23.7486667 20.8306667,23.496 20.8306667,23.185 L20.8306667,21.6536667 L23.2186667,21.6536667 L23.2186667,20.7553333 C23.2186667,20.099 23.2016667,19.4426667 23.1483333,19.0663333 C22.9766667,17.879 21.31,17.69 20.4673333,18.2983333 C20.203,18.4883333 20.0013333,18.7423333 19.884,19.0846667 C19.7656667,19.4256667 19.707,19.892 19.707,20.4856667 L19.707,22.461 C19.707,25.746 23.6966667,25.2813333 23.2213333,22.4556667 Z M17.8723333,11.7293333 C17.944,11.9023333 18.0546667,12.0443333 18.207,12.151 C18.3553333,12.2566667 18.547,12.3086667 18.776,12.3086667 C18.9766667,12.3086667 19.1536667,12.2553333 19.3086667,12.1433333 C19.4623333,12.0313333 19.5923333,11.866 19.698,11.6446667 L19.672,12.19 L21.2226667,12.19 L21.2226667,5.59766667 L20.0026667,5.59766667 L20.0026667,10.728 C20.0026667,11.0066667 19.7733333,11.233 19.4933333,11.233 C19.215,11.233 18.9856667,11.0066667 18.9856667,10.728 L18.9856667,5.59766667 L17.7123333,5.59766667 L17.7123333,10.0443333 C17.7123333,10.6106667 17.7226667,10.9883333 17.7396667,11.1796667 C17.7566667,11.3696667 17.8006667,11.552 17.8723333,11.7293333 Z M13.1743333,8.00533333 C13.1743333,7.37233333 13.228,6.879 13.332,6.522 C13.4373333,6.16666667 13.6276667,5.88166667 13.9023333,5.66666667 C14.1756667,5.45066667 14.526,5.34233333 14.953,5.34233333 C15.3113333,5.34233333 15.6183333,5.41266667 15.875,5.55066667 C16.134,5.68866667 16.332,5.86833333 16.47,6.091 C16.6106667,6.31366667 16.7056667,6.543 16.7576667,6.77733333 C16.8086667,7.01566667 16.8346667,7.37366667 16.8346667,7.85666667 L16.8346667,9.52466667 C16.8346667,10.1353333 16.81,10.586 16.763,10.871 C16.716,11.1576667 16.6146667,11.4233333 16.457,11.672 C16.302,11.9193333 16.103,12.103 15.8606667,12.22 C15.616,12.34 15.336,12.397 15.0196667,12.397 C14.6666667,12.397 14.3683333,12.349 14.1236667,12.246 C13.8776667,12.146 13.6873333,11.9923333 13.552,11.789 C13.4153333,11.586 13.319,11.3386667 13.2603333,11.0506667 C13.2016667,10.7616667 13.1743333,10.328 13.1743333,9.75133333 L13.1743333,8.00533333 Z M14.388,10.6236667 C14.388,10.9973333 14.6666667,11.302 15.0053333,11.302 C15.3436667,11.302 15.6196667,10.9973333 15.6196667,10.6236667 L15.6196667,7.11466667 C15.6196667,6.74233333 15.3436667,6.43733333 15.0053333,6.43733333 C14.6666667,6.43733333 14.388,6.74233333 14.388,7.11466667 L14.388,10.6236667 Z M10.099,12.396 L11.5613333,12.396 L11.5626667,7.34 L13.2903333,3.009 L11.6913333,3.009 L10.772,6.22533333 L9.841,3 L8.25766667,3 L10.0963333,7.34233333 L10.099,12.396 Z" id="Fill-1" fill="#424242"></path>
        </g>
    </g>
</svg>